<svg xmlns="http://www.w3.org/2000/svg" viewBox="0 0 227.95 45.67"><defs><style>.cls-1{fill:#33835c;}.cls-2{fill:#6aaa37;}</style></defs><title>qc_nav_brand</title><g id="Layer_2" data-name="Layer 2"><g id="Layer_1-2" data-name="Layer 1"><path class="cls-1" d="M24.46,31.39a14.67,14.67,0,0,0,1.92-7.6,13.51,13.51,0,0,0-3.46-9.6,12.76,12.76,0,0,0-9.73-3.85,12.65,12.65,0,0,0-9.7,3.85A13.49,13.49,0,0,0,0,23.79a13.55,13.55,0,0,0,3.46,9.68c2.37,2.5,5.65,3.77,9.73,3.77a15.46,15.46,0,0,0,2-.12l5,4.38H26l-6.51-5.62A11.32,11.32,0,0,0,24.46,31.39ZM6.85,17.11a7.72,7.72,0,0,1,6.34-2.89,7.72,7.72,0,0,1,6.34,2.89,10.46,10.46,0,0,1,2.1,6.68,10.58,10.58,0,0,1-2,6.65,7.66,7.66,0,0,1-6.41,2.92,7.66,7.66,0,0,1-6.41-2.92,10.58,10.58,0,0,1-2-6.65A10.46,10.46,0,0,1,6.85,17.11Z"/><path class="cls-1" d="M42.54,17.6v8.93a9.19,9.19,0,0,1-1.35,5.36A4.74,4.74,0,0,1,37,33.82a3.27,3.27,0,0,1-3-1.54,10.06,10.06,0,0,1-.83-4.73V17.6H28.9V29c0,5.5,2.58,8.29,7.65,8.29a8.58,8.58,0,0,0,4-.94,6.32,6.32,0,0,0,2.14-1.82v2.34h4.16V17.6Z"/><polygon class="cls-1" points="50.42 17.61 50.42 36.82 54.7 36.82 54.7 32.52 54.7 17.61 50.42 17.61"/><path class="cls-1" d="M72.07,32.52l-.47.28a6.85,6.85,0,0,1-3.68,1,5.67,5.67,0,0,1-4.7-2.09,7,7,0,0,1-1.45-4.49,7,7,0,0,1,1.56-4.56,5.39,5.39,0,0,1,4.36-2,10.65,10.65,0,0,1,3.78.76l.41.17L72.26,18l-.24-.1a12.63,12.63,0,0,0-4.48-.75A10.12,10.12,0,0,0,60.11,20a9.76,9.76,0,0,0-2.85,7.21,9.64,9.64,0,0,0,2.85,7.07,10.08,10.08,0,0,0,7.43,3,11.8,11.8,0,0,0,4.65-.78l.22-.1Z"/><path class="cls-1" d="M82.57,26.17,92,17.6H86.11l-7.36,7.07V9.37H74.47V36.82h4.28v-9c.37.39,8.22,9,8.22,9H93.1Z"/><path class="cls-1" d="M111.89,32l-.47.28a11.34,11.34,0,0,1-5.56,1.18A9.55,9.55,0,0,1,99,30.79,9,9,0,0,1,96.29,24,9.13,9.13,0,0,1,99,17.19a9.63,9.63,0,0,1,7.07-2.67,10.45,10.45,0,0,1,5.25,1.38l.47.26.36-4.24-.22-.1a15.43,15.43,0,0,0-6-1.12,14.66,14.66,0,0,0-10.22,3.64,12.3,12.3,0,0,0-4,9.53,12.76,12.76,0,0,0,3.91,9.74,14.57,14.57,0,0,0,10.3,3.63,17,17,0,0,0,6.12-.91l.23-.1Z"/><path class="cls-1" d="M124.61,17.17a7.54,7.54,0,0,0-6,2.52V9.37h-4.28V36.82h4.28V27.91A9.21,9.21,0,0,1,120,22.56a4.77,4.77,0,0,1,4.22-1.93,3.22,3.22,0,0,1,2.92,1.48,10,10,0,0,1,.87,4.78v9.93h4.28V25.47C132.29,20,129.71,17.17,124.61,17.17Z"/><path class="cls-1" d="M153,28c0-7.18-3-10.82-8.95-10.82a9.12,9.12,0,0,0-6.85,2.72,9.69,9.69,0,0,0-2.62,7c0,3.2.85,5.72,2.54,7.5s4.45,2.86,7.89,2.86A19.57,19.57,0,0,0,151.28,36s.15-.06.15-.06l.08,0V31.59L151,32a8.06,8.06,0,0,1-2.34,1.13,11.24,11.24,0,0,1-3.44.63,6,6,0,0,1-4.24-1.61,5.42,5.42,0,0,1-1.8-3.85H153Zm-9-7.36A4.19,4.19,0,0,1,147.27,22a5,5,0,0,1,1.18,3.11h-9.29a5.9,5.9,0,0,1,1.26-2.92h0A4.44,4.44,0,0,1,144,20.63Z"/><path class="cls-1" d="M163.62,26.17l9.45-8.57h-5.91l-7.36,7.07V9.37h-4.28V36.82h4.28v-9c.37.39,8.22,9,8.22,9h6.13Z"/><path class="cls-1" d="M52.66,10.26a2.56,2.56,0,1,0,2.56,2.55A2.55,2.55,0,0,0,52.66,10.26Z"/><path class="cls-2" d="M210.54,30.43c.72-.09,7.28-.83,11.93,2.68a22.35,22.35,0,1,0-8,8.31C210.74,37.32,210.55,31.22,210.54,30.43Zm-7.6,1.36a9.48,9.48,0,1,1,9.48-9.48A9.47,9.47,0,0,1,202.94,31.79Z"/><path class="cls-1" d="M210.54,30.43c0,.86.23,7.91,4.89,12s12.09,3.27,12.52,3.15c0-.85-.23-7.91-4.89-12S211.29,30.33,210.54,30.43Z"/><path class="cls-1" d="M177.56,33.27a2.11,2.11,0,1,1-2.11,2.11A2.12,2.12,0,0,1,177.56,33.27Zm0,3.9a1.79,1.79,0,1,0-1.71-1.79A1.71,1.71,0,0,0,177.56,37.17Zm-.81-3h.95c.57,0,.85.23.85.7a.64.64,0,0,1-.64.68l.7,1.09h-.43l-.69-1.09h-.33v1.09h-.41Zm.41,1.06h.47c.31,0,.51-.06.51-.38s-.25-.36-.51-.36h-.47Z"/></g></g></svg>